<?xml version="1.0" standalone="no"?><!DOCTYPE svg PUBLIC "-//W3C//DTD SVG 1.1//EN" "http://www.w3.org/Graphics/SVG/1.1/DTD/svg11.dtd"><svg t="1732087214810" class="icon" viewBox="0 0 1024 1024" version="1.1" xmlns="http://www.w3.org/2000/svg" p-id="1529" xmlns:xlink="http://www.w3.org/1999/xlink" width="200" height="200"><path d="M808.96 112.64H219.562667a111.872 111.872 0 0 0-111.616 111.658667V816.64a111.872 111.872 0 0 0 111.616 111.616H808.96a111.872 111.872 0 0 0 111.616-111.616V224.298667A111.872 111.872 0 0 0 808.96 112.64zM727.466667 399.36a214.229333 214.229333 0 0 1-213.504 196.650667 214.442667 214.442667 0 0 1-213.504-198.144 76.8 76.8 0 0 1-46.08-70.656c0-42.496 34.304-76.8 76.8-76.8s76.8 34.304 76.8 76.8a76.8 76.8 0 0 1-47.616 71.168 154.24 154.24 0 0 0 153.088 137.728 153.6 153.6 0 0 0 153.088-138.752 76.842667 76.842667 0 0 1-44.032-69.632c0-42.496 34.304-76.8 76.8-76.8s76.8 34.304 76.8 76.8a73.941333 73.941333 0 0 1-48.64 71.68z" p-id="1530" fill="#1296db" ></path></svg>